<?xml version="1.0" encoding="utf-8"?>
<!-- Generator: Adobe Illustrator 18.0.0, SVG Export Plug-In . SVG Version: 6.00 Build 0)  -->
<!DOCTYPE svg PUBLIC "-//W3C//DTD SVG 1.1//EN" "http://www.w3.org/Graphics/SVG/1.1/DTD/svg11.dtd">
<svg version="1.1" id="Layer_1" xmlns="http://www.w3.org/2000/svg" xmlns:xlink="http://www.w3.org/1999/xlink" x="0px" y="0px"
	 viewBox="0 0 595.3 595.3" enable-background="new 0 0 595.3 595.3" xml:space="preserve">
<path opacity="0.85" fill="#E2E200" d="M545.8,92.3v-3.1c0-0.6-0.6-1.3-0.6-1.9s-0.6-1.3-0.6-1.9c-0.6-0.6-0.6-1.3-1.3-1.9
	c0-0.6-0.6-0.6-0.6-1.3c-0.6-0.6-1.9-1.9-2.5-2.5c-0.6-0.6-1.9-1.3-2.5-1.9c-0.6,0-0.6-0.6-1.3-0.6c-0.6-0.6-1.3-1.3-1.9-1.3
	c0-0.6-0.6-0.6-1.3-0.6s-1.3-0.6-1.9-0.6h-1.9c0,0-0.6,0-1.3,0L471.8,76c-9.4,0-17.5,8.1-17.5,18.2c0,9.4,8.1,17.5,18.2,17.5l13.8,0
	l-8.2,6.9l-65.2,66.4c-1.3,1.3-2.5,2.5-3.1,4.4L301.4,404.4L199.2,302.2c-4.4-3.8-10-5.6-15.7-5c-5.6,0.6-10.7,4.4-13.2,9.4
	l-52.6,104L50.1,544.7c-4.4,9.4-0.6,20.1,8.1,24.4c2.5,1.3,5.6,1.9,8.1,1.9c6.9,0,13.2-3.8,16.3-10l108.4-215.6L293.2,447
	c4.4,3.8,10,5.6,15.7,5c5.6-0.6,10.7-4.4,13.2-9.4l119.1-235l69.6-70.8h0.6v7.5c0,9.4,8.1,17.5,18.2,17.5c9.4,0,17.5-8.1,17.5-18.2
	v-6.9L545.8,92.3z"/>
<path opacity="0.66" fill="#666666" d="M119.7,384.7l12.5-25.1h-12.5V384.7z M174.8,355.3h40.7l-26.9-26.9L174.8,355.3z M235,0
	H119.7v115.3H235V0z M235,119.7H119.7V235H235V119.7z M119.7,355.3h15l33.2-65.8c2.5-5,7.5-8.8,13.2-9.4c5.6-0.6,11.3,1.3,15.7,5
	l38.8,38.8v-84H119.7V355.3z M0,115.3h115.3V0H0V115.3z M0,355.3h115.3V240H0V355.3z M0,235h115.3V119.7H0V235z M0,475.6h74.6
	l40.7-82.1v-33.8H0V475.6z M480,97.1l2.5-2.5H480V97.1z M475.6,101.5v-6.9H470c-10,0-18.2-8.1-18.2-17.5c0-10,8.1-18.2,17.5-18.2
	h5.6V0H359.7v115.3h102.1L475.6,101.5z M359.7,120.3v115.3h15.7l32-63.3c0.6-1.9,1.9-3.1,3.1-4.4l46.4-47.6H359.7z M240,328.3
	l26.9,26.9h48.2l40.1-80.2V240H240V328.3z M298.9,387.2l13.8-27.6h-41.4L298.9,387.2z M355.3,0H240v115.3h115.3V0z M355.3,119.7H240
	V235h115.3V119.7z M359.7,266.3l13.8-26.3h-13.8V266.3z M416.1,235.6h59.5v-82.7l-37,37.6L416.1,235.6z M480,0v58.3l45.7-0.6
	c0.6,0,1.3,0,1.3,0h1.9c0.6,0,1.3,0.6,1.9,0.6c0.6,0,1.3,0,1.3,0.6c0.6,0,1.3,0.6,1.9,1.3c0.6,0,0.6,0.6,1.3,0.6
	c0.6,0.6,1.9,1.3,2.5,1.9c0.6,0.6,1.9,1.9,2.5,2.5c0,0.6,0.6,0.6,0.6,1.3c0.6,0.6,0.6,1.3,1.3,1.9c0,0.6,0.6,1.3,0.6,1.9
	s0.6,1.3,0.6,1.9v3.1l0.6,40.1h50.8V0H480z M115.3,475.6v-1.9l-0.6,1.9H115.3z"/>
<path opacity="0.66" fill="#260ECC" d="M480,475h115.3V359.7H480V475z M480,595.3h115.3V480H480V595.3z M359.7,346.5v8.8h115.9V240
	h-62L359.7,346.5z M359.7,475H475V359.7H359.7V475z M480,355.3h115.3V240H480V355.3z M80.2,543.9c-3.1,6.3-9.4,10-16.3,10
	c-2.5,0-5.6-0.6-8.1-1.9c-8.8-4.4-12.5-15-8.1-24.4L71.4,480H0v115.3h115.3V480h-3.1L80.2,543.9z M544.5,119.7v6.9
	c0,10-8.1,18.2-17.5,18.2c-10,0-18.2-8.1-18.2-17.5v-7.5h-0.6L480,147.9V235h115.3V119.7H544.5z M119.7,595.3H235V480H119.7V595.3z
	 M172.3,359.7l-52.6,104.6v11.3h115.9V374.7l-15-15H172.3z M240,595.3h115.3V480H240V595.3z M359.7,595.3H475V480H359.7V595.3z
	 M319.6,425.5c-2.5,5-7.5,8.8-13.2,9.4c-5.6,0.6-11.3-1.3-15.7-5L240,379.1V475h115.3V359.7h-2.5L319.6,425.5z"/>
</svg>
