<?xml version="1.0" encoding="utf-8"?>
<!-- Generator: Adobe Illustrator 18.0.0, SVG Export Plug-In . SVG Version: 6.00 Build 0)  -->
<!DOCTYPE svg PUBLIC "-//W3C//DTD SVG 1.1//EN" "http://www.w3.org/Graphics/SVG/1.1/DTD/svg11.dtd">
<svg version="1.1" id="Layer_1" xmlns="http://www.w3.org/2000/svg" xmlns:xlink="http://www.w3.org/1999/xlink" x="0px" y="0px"
	 viewBox="0 0 595.3 595.3" enable-background="new 0 0 595.3 595.3" xml:space="preserve">
<rect x="150.4" y="123.3" opacity="0.2" fill="#070707" enable-background="new    " width="130.5" height="178.3"/>
<polygon opacity="0.1" fill="#300A0A" enable-background="new    " points="506.7,447.6 75.8,314 63.9,515.3 438,557.4 "/>
<rect x="65.2" y="385" fill="#F8931F" width="292.6" height="130.4"/>
<path opacity="0.4" fill="none" stroke="#000000" stroke-miterlimit="10" enable-background="new    " d="M107.3,471.9
	c2.6,3.2,6,4.9,10.3,4.9c4.1,0,7.5-1.4,10-4.1s3.7-6.3,3.7-10.9c0-4.2-1.1-7.7-3.4-10.4c-2.3-2.7-5.4-4.1-9.2-4.1
	c-3.6,0-6.7,1.1-9,3.4c0.5-4,1.9-7.1,4.2-9.3c2.5-2.4,5.8-3.6,10-3.7h1.2v-5.2H124 M117.6,471.6c-2.3,0-4.2-1-5.8-3.2
	c-1.6-2.2-2.4-5-2.4-8.4v-1.9c0.6-1.6,1.7-2.9,3.2-4.1s3.2-1.6,5-1.6c2.3,0,4.1,0.9,5.4,2.6c1.4,1.8,2,4.1,2,7 M134.6,460.1h15.1v-5
	 M158,476.2h6.3l17.9-40.2v-3.5 M152.6,437.5h23.1 M198.6,467c1.5,3.2,3.5,5.6,6.2,7.3c2.6,1.7,5.8,2.5,9.2,2.5
	c3.5,0,6.7-0.9,9.3-2.5c2.6-1.7,4.8-4.2,6.1-7.4c1.5-3.2,2.2-6.9,2.2-11.2v-2.7c0-4.2-0.7-7.9-2.2-11.2c-1.5-3.2-3.5-5.7-6.2-7.4
	c-2.7-1.7-5.8-2.5-9.3-2.5 M214,471.3c-3.5,0-6.3-1.4-8.4-4.1c-2-2.7-3.1-6.7-3.1-11.6v-3.2c0.1-4.8,1.1-8.5,3.2-11.2
	c2-2.6,4.8-4,8.3-4c3.6,0,6.3,1.4,8.4,4 M255.1,471.5c-3.4,0-6.1-1.4-7.9-4.1c-1.9-2.7-2.8-6.5-2.8-11v-4.2c0-4.9,1-8.7,3.1-11.3
	c2-2.6,4.8-4,8.3-4c2.8,0,5.1,0.8,6.7,2.3c1.6,1.5,2.6,4,3.2,7.4v0.2h6.2v-0.3c-0.5-4.5-2.2-8.2-4.9-10.8c-2.8-2.6-6.6-4-11.2-4
	 M242.6,471.2c3.1,3.7,7.3,5.6,12.5,5.6c4.8,0,8.6-1.2,11.4-3.7c2.8-2.5,4.6-6.1,5.1-10.8v-0.3 M288.3,476.2h6.2v-38.4h13.8v-5.2
	 M274.5,437.6h13.8"/>
<path fill="#FFFFFF" d="M117.9,446.7c-3.6,0-6.7,1.1-9,3.4c0.5-4,1.9-7.1,4.2-9.3c2.5-2.4,5.8-3.6,10-3.7h1.2v-5.2h-1.2
	c-6.8,0.1-11.9,2.3-15.3,6.6c-3.4,4.2-5.1,10.4-5.1,18.4v2.2c0,5,1.4,9.2,4,12.5c2.6,3.2,6,4.9,10.3,4.9c4.1,0,7.5-1.4,10-4.1
	c2.5-2.7,3.7-6.3,3.7-10.9c0-4.2-1.1-7.7-3.4-10.4C124.8,448.1,121.6,446.7,117.9,446.7z M122.4,468.5c-1.4,1.7-3.3,2.6-5.6,2.6
	s-4.2-1-5.8-3.2c-1.6-2.2-2.4-5-2.4-8.4v-1.9c0.6-1.6,1.7-2.9,3.2-4.1s3.2-1.6,5-1.6c2.3,0,4.1,0.9,5.4,2.6c1.4,1.8,2,4.1,2,7
	C124.4,464.4,123.8,466.7,122.4,468.5z M133.9,459.5h15.1v-5.1h-15.1V459.5z M151.8,437h23.1l-17.8,38.6h6.3l17.9-40.2v-3.5h-29.7
	v5.1H151.8z M222.4,433.8c-2.7-1.7-5.8-2.5-9.3-2.5c-3.4,0-6.6,0.9-9.2,2.6c-2.7,1.7-4.8,4.2-6.2,7.4c-1.5,3.2-2.2,6.9-2.2,11.1v3.1
	c0,4.1,0.8,7.7,2.3,10.9c1.5,3.2,3.5,5.6,6.2,7.3c2.6,1.7,5.8,2.5,9.2,2.5c3.5,0,6.7-0.9,9.3-2.5c2.6-1.7,4.8-4.2,6.1-7.4
	c1.5-3.2,2.2-6.9,2.2-11.2v-2.7c0-4.2-0.7-7.9-2.2-11.2C227.1,438,225.1,435.5,222.4,433.8z M224.5,455.6c-0.1,4.9-1.1,8.7-3.1,11.3
	c-1.9,2.6-4.8,3.9-8.3,3.9s-6.3-1.4-8.4-4.1c-2-2.7-3.1-6.7-3.1-11.6v-3.2c0.1-4.8,1.1-8.5,3.2-11.2c2-2.6,4.8-4,8.3-4
	c3.6,0,6.3,1.4,8.4,4c2,2.7,3.1,6.6,3.1,11.6L224.5,455.6L224.5,455.6z M264.6,461.6c-0.6,3.5-1.6,5.9-3.3,7.3c-1.6,1.4-4,2-7.1,2
	c-3.4,0-6.1-1.4-7.9-4.1c-1.9-2.7-2.8-6.5-2.8-11v-4.2c0-4.9,1-8.7,3.1-11.3c2-2.6,4.8-4,8.3-4c2.8,0,5.1,0.8,6.7,2.3
	c1.6,1.5,2.6,4,3.2,7.4v0.2h6.2v-0.3c-0.5-4.5-2.2-8.2-4.9-10.8c-2.8-2.6-6.6-4-11.2-4c-3.5,0-6.6,0.8-9.3,2.5
	c-2.6,1.7-4.8,4.1-6.2,7.1c-1.5,3.1-2.2,6.7-2.2,10.7v4.2c0,6.1,1.6,11.1,4.6,14.8c3.1,3.7,7.3,5.6,12.5,5.6c4.8,0,8.6-1.2,11.4-3.7
	c2.8-2.5,4.6-6.1,5.1-10.8v-0.3h-6L264.6,461.6z M273.7,431.9v5.2h13.8v38.4h6.2v-38.4h13.8v-5.2H273.7z"/>
<polygon fill="#FCC065" points="72.4,310.6 46.4,350.4 374.2,349.8 356.2,311 "/>
<polygon opacity="0.1" fill="#300A0A" enable-background="new    " points="72.4,310.6 46.4,350.4 374.2,349.8 "/>
<rect x="123.5" y="325" fill="#FEE8CC" width="177.5" height="3.1"/>
<rect x="123.5" y="328" fill="#664D3D" width="177.5" height="4.3"/>
<polygon opacity="0.1" fill="#300A0A" enable-background="new    " points="65.2,385 357.4,426.9 357.7,385 "/>
<rect x="46.1" y="350" fill="#F89B30" width="328.4" height="35.2"/>
<rect x="151.3" y="124" fill="#FEFEFE" width="127.3" height="175.3"/>
<g>
	<path fill="#FECB66" d="M223.7,180.6c-2.4-2.5-4.9-4.9-5.6-8.5c-1-1.4-1.4-2.9-1.2-4.6c0-0.5,0-0.9,0-1.4c0.6-6.6,2.6-8.3,9.1-7.4
		c2,0.3,4.1,0.2,6.2-0.1c5.4-0.7,6.9,0.6,8,5.9c-0.2,2.5,1.2,5.1-0.7,7.4c-1.1,3.5-3.1,6.3-6,8.6c-0.1,0.1-0.1,0.2-0.2,0.3
		c-2.9,1.9-6,2.2-9.1,0.3C224.1,181.2,223.8,181,223.7,180.6z"/>
	<path fill="#FECB66" d="M212.4,199.4c0.1-0.2,0.3-0.5,0.5-0.8c0.8-0.2,0.9,0.7,1.7,1c-0.1-1.8-0.3-3.5-0.2-5.2
		c0-1.6,0.9-2.5,2.4-2.7c0.9-0.1,2-0.5,2.2,1.1c-0.1,0.7-0.5,1.2-1.2,1.5c0.6,0.2,1.5-0.1,1.8,0.8c0,0.2-0.1,0.5-0.2,0.7
		c-0.3,0.6-1.6,1-0.2,1.8c2.2,0.2,1-1.5,1.2-2.4c0.8-0.7-0.5-1.9,0.7-2.5c1.7-0.6,3.3-0.8,5.1-0.5c1.1,0.2,2.3,0,3.4-0.5
		c3.5-1.1,4.1-0.7,4.3,2.9c0,2,0.2,4.2-0.6,6.2c-0.8,2.6-2.4,4.6-4.8,6c-0.5,0.3-0.9,0.6-1.5,0.7c-2,0.5-4,0.5-5.9-0.1
		c-2.7-0.6-4.3,1.1-5.8,3.1c-0.6,0.7-0.6,1.7-1.5,2.2c-0.6-2-0.2-4.2-0.5-6.2c-0.1-1,0.1-2.2-0.8-3.1
		C211.6,202.2,212.2,200.8,212.4,199.4z"/>
	<path fill="#7AB41D" d="M228,206.9c1.7-1.6,3.7-3.1,4.4-5.6c2.4-1.9,2.2-4.2,1-6.6c0.3-3.4,0.2-6.7-2.9-9c-0.7-0.5-1.5-0.8-1.5-1.8
		c1.6-1,3.4-1.6,4.5-3.3v-0.1c9.2,3.1,10.2,4.5,11,15c0.1,3.3-0.5,3.7-4.5,3.1c-1-1.2-1-1.2-1-3.3c-0.2,2.3-1,4.2-0.8,6.2
		c-0.7,2.4-2.3,4.1-4,5.8C232.1,209.4,230.1,207.7,228,206.9z"/>
	<path fill="#8D3ED5" d="M185.3,183c0.8-0.5,1.6-0.8,2.4-1.2c1-1.1,2.3-1.6,3.7-1.4c1,2.3,3.4,2.7,5.1,4c0.1,0.6-0.2,0.9-0.6,1.1
		c-4.1,2-5.2,5.7-5.1,10c-0.2,1.1-0.2,2.4-0.5,3.6c-1.5,1.9,0.2,4.1-0.3,6.1c-2.6-0.3-2.9-2.6-3.7-4.4c0.2-2.4-0.5-4.6-0.5-6.9
		c0-0.5-0.5,0.1-0.2,0c0.1-0.1,0.2,0,0.1,0.2c-0.2,1.5,1.1,3.2-0.5,4.5c-1.7,0.6-3.5,0.8-5.1-0.3c-0.2-3.5,0.5-7,1.1-10.4
		C181.9,185.6,183.4,184.1,185.3,183z"/>
	<path fill="#59463F" d="M229.2,184.1c4.3,1.8,5,5.7,5.3,9.6c0.1,0.6-0.3,1-0.8,1.2c-0.3,0.1-0.6,0.1-0.7-0.2c0-3.4,0-3.5-3.1-2.3
		c-3.1,1.2-6.3-0.3-9.5,0.8c-0.8,0.6-1.5,0.5-2.2-0.2c-0.1-0.3,0.7-1-0.1-0.9c-1.1,0.2-2.6-0.1-3.3,1.2c-0.2,0.3-0.1,0.9-0.1,1.4
		c-0.2,0.6-0.6,1-1.1,0.8c-1.1-0.5-0.6-1.5-0.5-2.4c0.1-1.2,0-2.5,0.7-3.6c2.2-5.6,4.5-6.9,11.6-6.8
		C226.8,183,228.3,182.9,229.2,184.1z"/>
	<path fill="#E22B56" d="M209.7,208.1c2,2,1.4,4.8,1.9,7.1c0.3,1.1-0.8,0.9-1.5,0.9c-6.6,0-13.3,0-19.8-0.1
		c-0.9-1.5-0.5-2.8,0.2-4.2c0.8-1.2,2.2-1.6,3.5-1.9c1.6-0.3,2.9-0.8,3.7-2.4c0.1-0.2,0.3-0.3,0.6-0.5c2.3,0.3,4.4-0.3,6.5-1.1
		C206.5,206.5,208.3,206.7,209.7,208.1z"/>
	<path fill="#4ABCFE" d="M213.7,212.8c1.1-4.2,3.7-6.2,7.1-5.9c1.5,1.5,3.4,0.9,5.1,1c2.5,1.8,6.1,1.5,8.5,3.7
		c0.6,1.4,1.2,2.8,0.2,4.3c-6.1,0-12.2,0.1-18.5,0.1C213.1,216.2,213.1,216.2,213.7,212.8z"/>
	<path fill="#5A4641" d="M190.4,195.4c-0.8-4.9,0.9-7.9,6.1-10.9c0.6-0.8,1.4-1,2.3-1.2c1.9-0.1,3.7-0.2,5.7,0.2
		c3.2,0.9,5.7,2.6,6.7,6c0.7,1.9,0.8,3.9,0.6,5.9c-0.5,0.5-1,0.5-1.6,0.5c-4-1.8-7.7-4.2-12.2-5c-1.2-0.2-2.8,0.2-3.6-1.2
		c0.1-1,0.9-1.5,1.7-1.9c4.3-2.4,10.2-1.2,13.4,2.7c-4.6-5.8-12.1-5.7-16.4,0.3c-0.2,0.3-0.8,0.5-0.8,1c0.5-0.3,0.9-0.5,1.5-0.1
		c0.8,1.9-0.2,3.1-1.7,4C191.2,195.8,190.7,195.8,190.4,195.4z"/>
	<path fill="#FECB66" d="M234,211.8c-2.6-1.4-6-1-8-3.5c0-0.7,0.6-0.6,1-0.8c0.3-0.2,0.7-0.3,1-0.6c0.1,0,0.2,0,0.2,0
		c5.4,2,7.4-1.9,9.4-5.6c0.2-1.2,0.1-2.7,1.7-3.3c0.8,0,1.6,0,2.4,0.1c2,0.3,2.9-0.6,2.7-2.6c1.1,4.9-1.5,8.3-4.6,11.3
		C238.7,209.4,236.3,210.6,234,211.8z"/>
	<path fill="#FDCA66" d="M197.7,207.3c1.4,3.4-1.9,2.8-3.3,3.4c-1.1,0.5-2.4,0.6-3.5,1.1c-2.5-1-4.6-2.5-6.2-4.9
		c-2.2-2.6-4.8-5-4.5-8.7c1.7,0,3.5,0.1,5.2,0.1c1.1,0.5,1.2,1.5,1.4,2.5c0.8,1.6,1.7,3.2,3.1,4.3c1.7,1,3.3,2.2,5.4,1.1
		C196.1,206,197.1,206.4,197.7,207.3z"/>
	<path fill="#594640" d="M240.8,159.7c-0.2-1-0.3-2.2-1.2-3.1c-1-2.6-3.3-3.6-5.8-4.3c-4.5-1.2-9.1-0.2-13.6,0.5
		c-1.8,0.3-2.8,1.2-3.5,2.7c0.1-0.1,0.1-0.1,0.2-0.1c-0.1,0-0.1,0.1-0.2,0.1c-0.7,2.9-0.2,5.9-0.2,8.8c-0.3,1.2-0.6,2.5,1,3.1
		c-0.1-1.9,0.6-3.7,1.1-5.6c0.7-2,1.7-2.9,4-2.6c3.6,0.6,7.4,0.8,11.1,0.1c2.9-0.6,4.4,0.6,5.1,3.3c0.2,0.7,0.3,1.4,0.6,2
		c0.5,0.7-0.1,1.7,1.1,2.7C241.3,164.7,240.7,162.2,240.8,159.7z"/>
	<path fill="#9143D5" d="M184.6,207c2,1.6,4.2,3.2,6.2,4.9c-0.2,1.5-0.3,2.8-0.6,4.3c-5.7,0.2-5.7,0.2-5.7-5.3
		C184.6,209.5,184.6,208.3,184.6,207z"/>
	<path fill="#7AB41E" d="M234,211.8c1.7-2,4.2-3.1,6-4.9c0,1.4,0.1,2.7,0.1,4.1c0,5.3,0,5.3-5.3,5.1
		C234.5,214.6,234.3,213.3,234,211.8z"/>
	<path fill="#5A463F" d="M209.7,208.1c-1.7-0.5-3.4-0.7-4.9-1.8c0.8-2,3.1-3.1,4-5c1.2-0.6,1.9-2,3.4-2.2c0.1,0.1,0.1,0.2,0.2,0.3
		c0.6,1.4,0.6,2.7,0.1,4.1c-0.2,0.8-0.8,1.5-0.7,2.3C212,207.6,211.3,208.1,209.7,208.1z"/>
	<path fill="#8E40D3" d="M211,189.6c-2.8-4.6-7.3-6-12.4-5.7c0.2-1.5,1.2-2.5,2.3-3.5c1.9-0.2,3.5,0.5,4.8,1.9
		c0.3,0.1,0.6,0.3,0.9,0.5C209.2,184.4,210.8,186.5,211,189.6z"/>
	<path fill="#7DB424" d="M225.3,183.4c-5.1-0.3-9.2,1.2-11.4,6.2c0-3.6,2.2-5.6,5.1-6.9c1.6-0.7,3.2-1.2,4.8-1.9
		c0.1,0.1,0.2,0.1,0.5,0.1C224.7,181.7,225.6,182.2,225.3,183.4z"/>
	<path fill="#DCAB4B" d="M239.6,164.8c0.2,0.6,0.5,1.1,0.9,2.2c0.1-2.8,0.2-5.1,0.3-7.3c0.6,2.2,0.3,4.4,1.2,6.7
		c0.7,1.9,0,4.5-2.5,5.6C240.4,169.6,239.2,167.3,239.6,164.8z"/>
	<path fill="#E6B147" d="M213.3,193.2c0.5,0.6-0.6,2.8,1.7,1.6c0.1,1.5,0.1,2.8,0.3,4.3c0.1,0.8,0.8,1.7-0.2,2
		c-0.8,0.2-1.2-0.7-1.6-1.5c-0.1-0.3-0.3-0.6-0.6-0.9C212.8,196.8,212.5,195,213.3,193.2z"/>
	<path fill="#E3B049" d="M216.6,164.4c0.5,0.9,0.3,2.2,1,3.1c0.2,1.6,0.3,3.1,0.6,4.6C215.2,170.4,214.4,166.8,216.6,164.4z"/>
	<path fill="#DFAB4B" d="M212.3,199.1c-1,0.8-1.7,2.3-3.2,2.3c-0.5-2.2,0.1-4.2,1.1-6c0.6,0,1,0,1.6,0.1
		C212.5,196.6,212.2,197.9,212.3,199.1z"/>
	<path fill="#FECB65" d="M184.8,168.7c0-0.8,0-1.5,0-2.3c0.9-2,2.9-2.2,4.6-2.7c4-1.5,7.8-3.2,11.3-5.6c0.5-0.3,0.9-0.7,1.5-0.2
		c0.8,2.4,2.6,4.1,3.7,6.2c0.6,0.9,1.1,1.8,1.2,2.9c0.7,5.7-1.7,9.9-6.2,13c-4.2,2.9-6.3,2.9-9.6,0.3
		C187,177.8,184.4,174.1,184.8,168.7z"/>
	<path fill="#463732" d="M199.1,150.9c-8.7-1.6-17.3,3.3-18.8,10.9c-1.6,7.7,0.1,15,5.1,21.2c1.1,0.3,2,0.1,2.5-1l-0.1-0.1
		c1.2-0.3,2.4-0.7,3.6-1.1c0.3-0.1,0.3-0.2,0.2-0.6c-3.4-2.6-5.8-5.9-6.5-10c0.1-0.5,0.2-1,0.3-1.5c0.1-0.7,0.1-1.4-0.2-2
		c-0.1-0.1-0.1-0.1-0.2-0.2c1.5-1.1,3.3-1.7,5-2.3c4.3-1.4,8.4-3.2,12-6c0.1,1.1,0.8,2.2,1.5,3.1c1.2,1.9,2.7,3.9,3.5,6.1
		c0.1,0.2,0.2,0.6,0.3,0.8c-0.7,4.5-2,8.7-6.5,11.3c-0.3,0.3-0.3,0.7,0,1.1c1.6,0.6,3.1,1,4.6,1.6c0.1,0.6,0.5,1,1.1,0.6
		c3.6-3.3,4.8-7.7,5.4-12.1C213.6,159.7,209.8,152.9,199.1,150.9z M198.6,158.6L198.6,158.6C198.6,158.6,198.6,158.5,198.6,158.6
		c0-0.1,0.1-0.1,0.1-0.1C198.7,158.6,198.6,158.6,198.6,158.6z"/>
	<path fill="#E2AF45" d="M225.3,183.4c-0.6-0.8-1.2-1.6-1.1-2.6c3.1,1.8,6.2,0.9,9.3,0c-0.5,2.4-2.2,3.3-4.3,3.4
		C227.9,183.9,226.6,183.7,225.3,183.4z"/>
	<path fill="#775545" d="M221.8,166c0.9-1,1.9-0.9,2.8-0.3c0.6,0.3,1,1.1,0.8,1.8c-0.3,1.4-1.6,1.1-2.6,1.2
		C221.7,168.2,220.4,167.5,221.8,166z"/>
	<path fill="#755241" d="M235,168.4c-1,0.5-2,0.5-2.9-0.5c-0.5-0.5-0.2-1.1,0.1-1.7c0.9-1.5,2.2-0.9,3.3-0.8
		C236.3,166.6,236.7,167.7,235,168.4z"/>
	<path fill="#D09946" d="M219.9,163.9c2.2-1.1,4.3-1.8,6.3-0.2C224.1,164,221.9,163.5,219.9,163.9z"/>
	<path fill="#EAAA11" d="M232.3,175.8c-1.8,2.5-5,2.5-6.9,0.1c0.1-0.1,0.2-0.1,0.3-0.2c2.2,0,4.2,0.1,6.3,0
		C232.1,175.6,232.2,175.6,232.3,175.8z"/>
	<path fill="#D09946" d="M237.9,163.9c-2.4,0-4.5,0-6.8,0C233.1,162.3,234.7,162.3,237.9,163.9z"/>
	<path fill="#EAB44A" d="M228.7,171.3c0.8,0.2,1.9-0.3,1.8,0.7c0,1-1.1,0.9-1.9,0.9c-0.8,0-1.9,0.1-1.8-1
		C226.9,170.9,228.1,171.8,228.7,171.3z"/>
	<path fill="#EAAA11" d="M225.4,175.8c-0.2-0.2-0.7-0.7-0.7-0.7c0.8-0.8,7.4-0.5,7.9,0.3c0,0-0.1,0.1-0.1,0.2
		c-0.1,0-0.1,0.1-0.2,0.1l0,0C230,175.9,227.7,175.6,225.4,175.8L225.4,175.8z"/>
	<path fill="#F9F5EF" d="M235,168.4c0.9-0.8,0.7-1.8,0.6-2.8c0.8,0.5,1.9,0.8,1.5,1.9C236.9,168.1,236.3,169.1,235,168.4z"/>
	<path fill="#F8F3E9" d="M221.8,166c-0.5,1.2,0.3,1.9,1,2.7c-1.2,0.1-2.2-0.2-2.4-1.6C220.3,166.2,221,165.9,221.8,166z"/>
	<path fill="#E3B045" d="M233,194.9c0.2,0.1,0.5,0.1,0.7,0.2c2.4,2,1.8,5-1.2,6.3C233.2,199.3,232.9,197.1,233,194.9z"/>
	<path fill="#EDB123" d="M223.7,205.3c-0.5-0.1-1.1-0.3-1.8-0.7c-0.6-0.2-1.2-0.7-1.1-1.4c0.1-0.8,0.9-0.7,1.6-0.8
		c0.7,0,1.2-0.1,1.9,0c1,0.2,2.8-0.8,2.7,1C227,204.8,225.3,205.1,223.7,205.3z"/>
	<path fill="#7B5A47" d="M228.7,195.4c0.5,0.7,2,1.1,1,2.3c-0.7,0.8-1.9,0.8-2.7,0.1c-1.2-1-0.1-1.7,0.6-2.3
		C227.9,195.1,228.3,195.1,228.7,195.4z"/>
	<path fill="#D9A550" d="M220.4,195.5c-0.3,0-0.7,0-1.1-0.1c-0.6-0.8-1.5-0.2-2.3-0.7c0.5-0.6,0.9-1,1.2-1.6
		c0.7,0.1,1.5,0.1,2.2,0.2C222.5,194.1,221.6,194.8,220.4,195.5z"/>
	<path fill="#E3B04B" d="M227,207.5c-0.3,0.2-0.7,0.6-1,0.8c-1.9,0.5-4,1.1-5.1-1.4C222.9,207.6,225,207.4,227,207.5z"/>
	<path fill="#D9A34D" d="M228.7,195.4c-0.3,0-0.8,0-1.1,0.1c-0.5-0.3-1-0.7-1.5-1c2.2-0.9,2.6-0.9,4.9,0.1
		C230.4,195.4,229.2,194.5,228.7,195.4z"/>
	<path fill="#E9B349" d="M222.1,201.3c1.4-0.5,2.4-0.6,3.6,0C224.5,202.3,223.6,202.2,222.1,201.3z"/>
	<path fill="#7B5A47" d="M220.4,195.5c-0.3-0.3-0.7-0.3-1.1-0.1c-0.1,0.1-0.3,0.1-0.5,0.1c-1.7,0.9-2.5,1.8,0,2.7l0,0
		c1.1,0.8,1.9-0.1,2.5-0.8C221.9,196.6,220.8,196.2,220.4,195.5z"/>
	<path fill="#5F9D20" d="M239.5,198.1c-0.6,1.1-1.1,2.2-1.7,3.3c-0.8-2.9,1.1-5.4,0.8-8.3c0.3,0,0.7,0,1,0.1
		C239.5,194.8,239.5,196.5,239.5,198.1z"/>
	<path fill="#594640" d="M197.7,207.3c-1-0.2-2.2-0.7-3.2-0.1c-2.4,1.2-3.6-0.1-4.6-1.9c-0.2-2-1.9-4.1,0.1-6.1
		c1.4,0.1,1.8,1.6,3.1,1.9c1.4,1.7,2.6,3.4,4.4,4.6c0.5,0.3,1,0.9,0.6,1.6l-0.1-0.1L197.7,207.3z"/>
	<path fill="#E3AD49" d="M191.4,180.7c0.1-0.2,0.1-0.3,0.2-0.6c3.2,2.2,6.2,1.8,9.2-0.6c0,0.3,0,0.7,0,1.1c-0.2,1.5-1,2.4-2.2,3.3
		c-0.8,0.2-1.5,0.3-2.3,0.6C194.1,184.1,191.8,183.8,191.4,180.7z"/>
	<path fill="#DDAA46" d="M192.7,201.4c-1.5,0-2-1.2-2.7-2.2c0.1-1.2-0.5-2.6,0.5-3.7c0.3,0,0.7,0,1,0
		C193.6,197,193,199.2,192.7,201.4z"/>
	<path fill="#7934B2" d="M186.8,200.9c-0.5-0.8-0.9-1.7-1.4-2.5c0-1.8,0-3.7,0-5.6C185.8,195.5,187.8,198,186.8,200.9z"/>
	<path fill="#FDCB65" d="M192.7,201.4c-1-1.9,0-4.2-1.2-6c1-1,2.4-1.9,1.7-3.7c-0.2-0.9-0.7-1.8,0.9-1.9c5.9,0.3,11.1,2.8,16.1,5.8
		c0.1,2.2-0.3,4.1-1.1,6c-0.6,2.3-2.5,3.5-4.2,4.9c-2,1.7-4.4,2.2-6.9,1C196.3,205.2,193.6,204.1,192.7,201.4z"/>
	<path fill="#F7F7F7" d="M193.9,189.7c-0.9,0.3-0.3,1.4-0.9,1.9c-0.8-0.2-1,0.5-1.4,0.9c0.6-4.8,4.9-7.5,10.8-6.9
		c4.4,0.5,7.7,3.4,7.5,6.8C206.7,186.8,200,185.6,193.9,189.7z"/>
	<path fill="#DB8A24" d="M192.7,176.3c-0.8-0.6-1.8-1.2,0-1.5c2.3-0.2,4.5-0.1,6.8-0.1c1.2,0,1.4,0.6,0.6,1.5
		C198.3,178.6,194.7,178.6,192.7,176.3c1.7-0.5,3.6,0.5,4.6,0.1C196.3,176.9,194.5,175.6,192.7,176.3z"/>
	<path fill="#775843" d="M198.9,166.9c0.3-0.9,0.9-1.5,1.8-1.8c1-0.3,2-0.1,2.8,0.5c1.1,0.7-0.2,1.6,0,2.4
		C201.1,169.6,200.4,169.4,198.9,166.9z"/>
	<path fill="#7F5B48" d="M192.1,165.6c0.6,0.1,0.9,0.5,1,1c-0.1,1.8-1,2.8-2.9,2.5c-1.5-0.2-2-1-1.5-2.5
		C189.6,165.6,191.2,166.8,192.1,165.6z"/>
	<path fill="#E9E0D5" d="M189.4,166.6c-0.6,1.1-0.1,1.8,1,2.2c1,0.2,1.8-0.1,2.2-1.1c0.1-0.5,0.1-0.9,0.7-1c0.2,1,0.6,2-0.7,2.5
		c-1.4,0.5-2.8,0.7-4.1-0.5c-1-0.9-0.6-1.7,0-2.6C188.9,165.7,189.5,165.6,189.4,166.6z"/>
	<path fill="#5B3E34" d="M189.4,166.6c-0.1-0.7-0.6-0.7-1.1-0.6c1.1-0.9,2.4-1.1,3.7-0.5C192.1,168.3,190.4,166.4,189.4,166.6z"/>
	<path fill="#E9E2D8" d="M198.9,166.9c1.2,1.6,2.6,2.6,4.6,1c-0.7,1.9-2.3,1.4-3.5,1C199,168.8,198.2,168.2,198.9,166.9z"/>
	<path fill="#E6B146" d="M194.3,172.4c1.4-0.5,2.6-0.6,4.4-0.1C196.9,173.4,195.5,173.3,194.3,172.4z"/>
	<path fill="#5E4A40" d="M202.6,163.7c-1.2,0.1-2.5,0.2-4.5,0.5C199.9,162.8,201.2,163.3,202.6,163.7z"/>
	<path fill="#FCF2DB" d="M225.4,175.8c2.3-0.9,4.6-0.8,6.9-0.1C230,176.7,227.7,176.7,225.4,175.8z"/>
	<path fill="#FBE7BD" d="M221.9,203.2c1.4,0,2.7,0,4.2,0C224.7,204.4,223.3,204.3,221.9,203.2z"/>
	<path fill="#ECB01F" d="M198.1,203.6c-0.7-0.6-0.5-1,0.3-1c1.4-0.1,2.7-0.1,4.1-0.1c0.7,0,1.6-0.1,1.7,0.8c0.1,0.7-0.7,1-1.1,1.4
		C201.2,205.6,199.4,205.6,198.1,203.6c1.4-0.5,2.8,0.3,4.3-0.2C201.1,204.1,199.6,203.2,198.1,203.6z"/>
	<path fill="#795746" d="M197.5,195.5c0.3,0.8,1.9,1.4,0.5,2.4c-0.7,0.5-1.7,1-2.6,0c-1.1-1.4,0.5-1.7,0.9-2.5
		C196.7,195,197.2,195.1,197.5,195.5z"/>
	<path fill="#8C6D5A" d="M205.1,195.4c1,0,1.5,0.8,1.5,1.6c0.1,0.9-0.9,1-1.6,1.1c-0.9,0.1-1.6-0.5-1.5-1.5
		C203.8,195.8,204.3,195.4,205.1,195.4z"/>
	<path fill="#D9A34E" d="M197.5,195.5c-0.3,0-0.8-0.1-1.1-0.1c-0.6-0.8-1.6-0.1-2.6-1c1.8-0.8,3.4-0.6,5.1-0.3
		C199,195.1,197.7,194.8,197.5,195.5z"/>
	<path fill="#EAB44A" d="M199.4,201.3c1.1-0.6,2-0.3,3.7-0.2C201.5,201.9,200.6,202.4,199.4,201.3z"/>
	<path fill="#FCF7EF" d="M192.7,176.3c2-1.6,4.4,0.1,6.6-0.7C197.2,177.6,194.9,176.8,192.7,176.3L192.7,176.3z"/>
	<path fill="#FAE9C3" d="M198.1,203.6c1.6-1.1,3.3-0.2,5.7-0.8C201.5,204.8,199.8,204,198.1,203.6L198.1,203.6z"/>
</g>
<g>
	<path fill="#FCFCFC" d="M379,162.7c0-0.7-0.2-1.1-0.2-1.7c-4.2-25-8.2-50.3-12.4-75.6c-2.6,0.2-5.1,0.6-7.4,1
		c-6.2,1-12.4,2.5-18.6,4c1,2.9,1.9,5.9,2.7,8.8c2.5,8.8,5.2,17.7,7.7,26.7c2.4,9,5,17.7,7.5,26.5c1.2,4.3,2.7,8.8,4,13.1
		C368,164.8,373.3,163.9,379,162.7z"/>
	<path fill="#FDFDFD" d="M227.5,144.3c-4.3,0.9-5.8,3.2-4.5,7.5c0.5,1.2,1,2.7,1.5,4c0.2,0.7,0.5,1,1,1.2c3.4,1.2,6.5,0.2,9.4-1.2
		c2.5-1.4,1.5-3.4,1.7-5.1c0-0.5,0-0.8,0-1.2c-0.7-5.4-1.9-6.5-7.4-5.7C228.5,143.7,227.8,143.7,227.5,144.3z"/>
	<path fill="#CCCECE" d="M378.9,163.2c-0.2-0.7,0.9,4.8-3.3-20.5c-2.5,0-12.5,2.8-18.7,4.3c0.9,2.8,4.2,14.4,5.4,18.7
		C368,164.8,373.3,163.9,378.9,163.2z"/>
	<path fill="#2D2D2D" d="M366,85.6c4.2,25,8,50.3,12.4,75.6c0,0.5,0.2,1.1,0.2,1.7c0.9,3.1,1.2,6.6,1.7,9.6c0.3,2,1,2.7,3.1,2.3
		c6.5-1.6,13.1-3.1,19.8-4.5c12.2-2.5,24.3-5,36.1-7.7c3.2-0.8,6.3-1.2,9.4-2c7.6-1.9,100.4-21.9,141.3-30.9V11.1
		c0-0.7-0.2-1.4-0.2-1.9c-2.6,1-134.9,43.9-137.7,44.9c-13.9,4.3-28,8.8-41.9,13.1c-13.4,4.3-26.5,8.3-39.9,12.6
		C366,81.1,365.8,81,366,85.6z"/>
	<path fill="#111111" d="M376.9,151.6c2.4,11.7,4.5,23.8,6.6,23.3c6.5-1.6,13.1-3.1,19.8-4.5c12.2-2.5,24.3-5,36.1-7.7
		c3.2-0.8,6.3-1.2,9.4-2c7.5-1.9,100.1-21.9,141.4-30.9v-28.2C537.1,113.9,376.6,147.5,376.9,151.6z"/>
	<path fill="#F1C9AF" d="M279.1,192c0-8.7,0-17.2,0-25.8c0-3.4-0.2-6.6,0-9.6c0.2-1.5,0-2.2-1.7-1.9c-2.5,0.3-5.2,0.1-7.9,0.6
		c-6,0.6-11.8,1.7-17.7,2.3c-7.4,0.8-15,2.3-22.4,2c-4.9-0.2-8.4-2.3-9.4-6.2c-1.4-4.4,0.3-8.4,4.5-11.1c2.3-1.5,4.8-2.3,7.5-2.7
		c14.3-1.9,27-8.2,39.5-14.8c0.2-0.2,0.2-0.3,0.8-0.8c-28.3-0.1-56.3-0.3-84.3-0.6c2.4-2.8,5.3-5.6,8.3-8.3
		c3.9-3.6,7.6-6.9,11.3-10.4c6.7-6.7,15.2-10.1,24.3-12.1c16.5-4.2,33.2-4,49.9-2.7c9.5,0.7,19.2,2,28.8,3.7c3.9,0.8,7.6,0,11.3-0.5
		c6.2-0.6,12.4-1.7,18.6-2.5c1,2.9,1.9,5.9,2.7,8.8c2.5,8.8,5.3,17.8,7.7,26.7c2.4,9,5,17.7,7.5,26.5c1.2,4.3,2.7,8.8,4,13.1
		c-14.8,5.2-29.6,10.7-44.6,15.4C304.9,185.3,291.9,189,279.1,192z M228.9,144.1c-0.7,0-1.1,0-1.7,0.2c-4.3,0.9-5.8,3.2-4.5,7.5
		c0.5,1.2,1,2.7,1.5,4c0.2,0.7,0.5,1,1,1.2c3.4,1.2,6.5,0.2,9.4-1.2c2.5-1.4,1.5-3.4,1.7-5.1c0-0.5,0-0.8,0-1.2
		C235.8,143.7,234.6,142.8,228.9,144.1z"/>
</g>
<g>
	<path fill="#4F4F4F" d="M205.8,267.4c8.3,0,16.2,0,24.5,0c0.3,0,0.6,0.2,0.8,0c0.3-0.2,0.6-0.8,0.8-1.4c-0.3-0.3-0.3-0.8-0.8-1.4
		c-0.2-0.2-0.3,0-0.8,0c-16.5,0-32.9,0-49.2,0c-0.6,0-1.5-0.6-1.5,1.4c0,1.9,1.1,1.4,1.5,1.4c7.5,0,15.1,0,22.8,0
		C204.5,267.4,205.5,267.4,205.8,267.4z"/>
	<path fill="#4F4F4F" d="M205.6,274.2c8.3,0,16.5,0,24.6,0c0.3,0,0.8,0,1.1,0c0.3-0.2,0.3-0.6,0.3-1.1c0-0.3-0.3-1.1-0.3-1.4
		c-0.3-0.2-0.6,0-0.8,0c-16.5,0-33.1,0-49.6,0c-0.3,0-0.6-0.2-0.8,0c-0.3,0.2-0.3,0.8-0.3,1.4s0.3,0.8,0.3,1.1c0.3,0.2,0.6,0,1.1,0
		C189.5,274.2,197.5,274.2,205.6,274.2z"/>
	<path fill="#4F4F4F" d="M205.8,244c8.3,0,16.5,0,24.6,0c0.3,0,0.6,0.2,0.8,0c0.3-0.2,0.3-0.8,0.3-1.4c0-0.3-0.3-0.8-0.3-1.1
		c-0.3-0.2-0.3,0-0.8,0c-16.5,0-33.1,0-49.6,0c-0.3,0-0.6-0.2-0.8,0c-0.3,0.2-0.3,0.6-0.3,1.1c0,0.3,0.3,1.1,0.3,1.4
		c0.3,0.2,0.6,0,0.8,0C189.5,244,197.8,244,205.8,244z"/>
	<path fill="#4F4F4F" d="M205.6,237.2c8.3,0,16.2,0,24.5,0c0.3,0,0.8,0.2,1.1,0s0.3-0.8,0.8-1.4c-0.3-0.3-0.3-0.8-0.8-1.1
		c-0.2-0.2-0.3,0-0.8,0c-16.5,0-33.1,0-49.2,0c-0.2,0-0.2,0-0.3,0c-0.3,0-1.4-0.2-1.4,1.4c0,1.5,0.8,1.4,1.4,1.4
		C189.3,237.2,197.5,237.2,205.6,237.2z"/>
	<path fill="#4F4F4F" d="M218.6,250.9c4,0,7.9,0,11.8,0c0.3,0,0.3,0.2,0.8,0c0.3-0.2,0.6-0.8,0.8-1.4c-0.3-0.3-0.3-0.8-0.8-1.4
		c-0.2-0.2-0.3,0-0.6,0c-8,0-16,0-24,0c-0.2,0-0.3,0-0.3,0c-0.3,0-1.1,0.2-0.8,1.4c0.2,0.3,0.3,0.8,0.8,1.4c0.2,0.2,0.3,0,0.8,0
		C210.7,250.9,214.7,250.9,218.6,250.9z"/>
	<path fill="#4F4F4F" d="M218.6,280.2c4,0,8,0,12,0c0.3,0,0.6,0.2,0.8,0c0.3-0.2,0.3-0.8,0.3-1.4s-0.3-0.8-0.3-1.1
		c-0.3-0.2-0.3,0-0.8,0c-8,0-16,0-24,0c-0.3,0-0.3-0.2-0.8,0c-0.3,0.2-0.3,0.6-0.8,1.1c0.3,0.3,0.3,0.8,0.8,1.4c0.2,0.2,0.3,0,0.8,0
		C210.7,280.2,214.7,280.2,218.6,280.2z"/>
	<path fill="#4F4F4F" d="M244.9,234.8h-5.8c-1.8,0-3.2,1.5-3.2,3.2v5.8c0,1.8,1.5,3.2,3.2,3.2h5.8c1.8,0,3.2-1.5,3.2-3.2V238
		C248.1,236.3,246.6,234.8,244.9,234.8z M237.5,243.8v-5.6c0-0.9,0.8-1.7,1.7-1.7h5.6c0.9,0,1.7,0.8,1.7,1.7v5.6
		c0,0.9-0.8,1.7-1.7,1.7h-5.6C238.2,245.3,237.5,244.7,237.5,243.8z"/>
	<path fill="#4F4F4F" d="M244.9,264.7h-5.8c-1.8,0-3.2,1.5-3.2,3.2v5.8c0,1.8,1.5,3.2,3.2,3.2h5.8c1.8,0,3.2-1.5,3.2-3.2v-5.8
		C248.1,266.2,246.6,264.7,244.9,264.7z M237.5,273.7v-5.6c0-0.9,0.8-1.7,1.7-1.7h5.6c0.9,0,1.7,0.8,1.7,1.7v5.6
		c0,0.9-0.8,1.7-1.7,1.7h-5.6C238.2,275.4,237.5,274.6,237.5,273.7z"/>
</g>
</svg>
