<?xml version="1.0" encoding="utf-8"?>
<!-- Generator: Adobe Illustrator 18.0.0, SVG Export Plug-In . SVG Version: 6.00 Build 0)  -->
<!DOCTYPE svg PUBLIC "-//W3C//DTD SVG 1.1//EN" "http://www.w3.org/Graphics/SVG/1.1/DTD/svg11.dtd">
<svg version="1.1" id="Layer_1" xmlns="http://www.w3.org/2000/svg" xmlns:xlink="http://www.w3.org/1999/xlink" x="0px" y="0px"
	 viewBox="0 0 595.3 595.3" enable-background="new 0 0 595.3 595.3" xml:space="preserve">
<rect x="278.6" y="127.8" opacity="0.2" fill="#070707" enable-background="new    " width="112.3" height="154.7"/>
<polygon opacity="0.1" fill="#300A0A" enable-background="new    " points="588.5,410 208.3,292.1 197.8,469.7 527.9,506.9 "/>
<rect x="198.9" y="354.7" fill="#F8931F" width="258.2" height="115.1"/>
<path opacity="0.4" fill="none" stroke="#000000" stroke-miterlimit="10" d="M236.1,431.4c2.3,2.8,5.3,4.3,9.1,4.3
	c3.6,0,6.6-1.2,8.8-3.6c2.2-2.4,3.3-5.6,3.3-9.6c0-3.7-1-6.8-3-9.2c-2-2.4-4.8-3.6-8.1-3.6c-3.2,0-5.9,1-7.9,3
	c0.4-3.5,1.7-6.3,3.7-8.2c2.2-2.1,5.1-3.2,8.8-3.3h1.1v-4.6h-1.1 M245.2,431.2c-2,0-3.7-0.9-5.1-2.8c-1.4-1.9-2.1-4.4-2.1-7.4v-1.7
	c0.5-1.4,1.5-2.6,2.8-3.6c1.3-1,2.8-1.4,4.4-1.4c2,0,3.6,0.8,4.8,2.3c1.2,1.6,1.8,3.6,1.8,6.2 M260.2,421h13.3v-4.4 M280.8,435.2
	h5.6l15.8-35.5l0-3.1 M276,401.1h20.4 M316.6,427.1c1.3,2.8,3.1,4.9,5.5,6.4c2.3,1.5,5.1,2.2,8.1,2.2c3.1,0,5.9-0.8,8.2-2.2
	c2.3-1.5,4.2-3.7,5.4-6.5c1.3-2.8,1.9-6.1,1.9-9.9v-2.4c0-3.7-0.6-7-1.9-9.9c-1.3-2.8-3.1-5-5.5-6.5c-2.4-1.5-5.1-2.2-8.2-2.2
	 M330.2,430.9c-3.1,0-5.6-1.2-7.4-3.6c-1.8-2.4-2.7-5.9-2.7-10.2v-2.8c0.1-4.2,1-7.5,2.8-9.9c1.8-2.3,4.2-3.5,7.3-3.5
	c3.2,0,5.6,1.2,7.4,3.5 M366.5,431.1c-3,0-5.4-1.2-7-3.6c-1.7-2.4-2.5-5.7-2.5-9.7v-3.7c0-4.3,0.9-7.7,2.7-10
	c1.8-2.3,4.2-3.5,7.3-3.5c2.5,0,4.5,0.7,5.9,2c1.4,1.3,2.3,3.5,2.8,6.5l0,0.2h5.5l0-0.3c-0.4-4-1.9-7.2-4.3-9.5
	c-2.5-2.3-5.8-3.5-9.9-3.5 M355.5,430.8c2.7,3.3,6.4,4.9,11,4.9c4.2,0,7.6-1.1,10.1-3.3c2.5-2.2,4.1-5.4,4.5-9.5l0-0.3 M395.8,435.2
	h5.5v-33.9h12.2v-4.6 M383.6,401.2h12.2"/>
<path fill="#FFFFFF" d="M245.4,409.2c-3.2,0-5.9,1-7.9,3c0.4-3.5,1.7-6.3,3.7-8.2c2.2-2.1,5.1-3.2,8.8-3.3h1.1v-4.6H250
	c-6,0.1-10.5,2-13.5,5.8c-3,3.7-4.5,9.2-4.5,16.2v1.9c0,4.4,1.2,8.1,3.5,11c2.3,2.8,5.3,4.3,9.1,4.3c3.6,0,6.6-1.2,8.8-3.6
	c2.2-2.4,3.3-5.6,3.3-9.6c0-3.7-1-6.8-3-9.2C251.5,410.4,248.7,409.2,245.4,409.2z M249.4,428.4c-1.2,1.5-2.9,2.3-4.9,2.3
	c-2,0-3.7-0.9-5.1-2.8c-1.4-1.9-2.1-4.4-2.1-7.4v-1.7c0.5-1.4,1.5-2.6,2.8-3.6c1.3-1,2.8-1.4,4.4-1.4c2,0,3.6,0.8,4.8,2.3
	c1.2,1.6,1.8,3.6,1.8,6.2C251.2,424.8,250.6,426.8,249.4,428.4z M259.5,420.5h13.3V416h-13.3V420.5z M275.3,400.6h20.4l-15.7,34.1
	h5.6l15.8-35.5l0-3.1h-26.2V400.6z M337.6,397.8c-2.4-1.5-5.1-2.2-8.2-2.2c-3,0-5.8,0.8-8.1,2.3c-2.4,1.5-4.2,3.7-5.5,6.5
	c-1.3,2.8-1.9,6.1-1.9,9.8v2.7c0,3.6,0.7,6.8,2,9.6c1.3,2.8,3.1,4.9,5.5,6.4c2.3,1.5,5.1,2.2,8.1,2.2c3.1,0,5.9-0.8,8.2-2.2
	c2.3-1.5,4.2-3.7,5.4-6.5c1.3-2.8,1.9-6.1,1.9-9.9v-2.4c0-3.7-0.6-7-1.9-9.9C341.8,401.5,340,399.3,337.6,397.8z M339.5,417
	c-0.1,4.3-1,7.7-2.7,10c-1.7,2.3-4.2,3.4-7.3,3.4c-3.1,0-5.6-1.2-7.4-3.6c-1.8-2.4-2.7-5.9-2.7-10.2v-2.8c0.1-4.2,1-7.5,2.8-9.9
	c1.8-2.3,4.2-3.5,7.3-3.5c3.2,0,5.6,1.2,7.4,3.5c1.8,2.4,2.7,5.8,2.7,10.2V417z M374.9,422.3c-0.5,3.1-1.4,5.2-2.9,6.4
	c-1.4,1.2-3.5,1.8-6.3,1.8c-3,0-5.4-1.2-7-3.6c-1.7-2.4-2.5-5.7-2.5-9.7v-3.7c0-4.3,0.9-7.7,2.7-10c1.8-2.3,4.2-3.5,7.3-3.5
	c2.5,0,4.5,0.7,5.9,2c1.4,1.3,2.3,3.5,2.8,6.5l0,0.2h5.5l0-0.3c-0.4-4-1.9-7.2-4.3-9.5c-2.5-2.3-5.8-3.5-9.9-3.5
	c-3.1,0-5.8,0.7-8.2,2.2c-2.3,1.5-4.2,3.6-5.5,6.3c-1.3,2.7-1.9,5.9-1.9,9.4v3.7c0,5.4,1.4,9.8,4.1,13.1c2.7,3.3,6.4,4.9,11,4.9
	c4.2,0,7.6-1.1,10.1-3.3c2.5-2.2,4.1-5.4,4.5-9.5l0-0.3H375L374.9,422.3z M382.9,396.1v4.6h12.2v33.9h5.5v-33.9h12.2v-4.6H382.9z"/>
<polygon fill="#FCC065" points="205.3,289.1 182.3,324.2 471.6,323.7 455.7,289.4 "/>
<polygon opacity="0.1" fill="#300A0A" enable-background="new    " points="205.3,289.1 182.3,324.2 471.6,323.7 "/>
<rect x="250.4" y="301.8" fill="#FEE8CC" width="156.6" height="2.7"/>
<rect x="250.4" y="304.4" fill="#664D3D" width="156.6" height="3.8"/>
<polygon opacity="0.1" fill="#300A0A" enable-background="new    " points="198.9,354.7 456.8,391.7 457,354.7 "/>
<rect x="182.1" y="323.9" fill="#F89B30" width="289.8" height="31.1"/>
<rect x="274.9" y="124.4" fill="#FEFEFE" width="112.3" height="154.7"/>
<path fill="#FCFCFC" d="M201.2,161.2c1.1-3.8,2.4-7.8,3.5-11.6c2.2-7.8,4.5-15.5,6.6-23.4c2.2-8,4.6-15.8,6.8-23.6
	c0.7-2.6,1.5-5.2,2.4-7.8c-5.5-1.3-10.9-2.6-16.4-3.5c-2-0.4-4.2-0.7-6.5-0.9c-3.7,22.3-7.2,44.6-10.9,66.7c0,0.5-0.2,0.9-0.2,1.5
	C191.5,159.6,196.2,160.4,201.2,161.2z"/>
<g>
	<path fill="#FECB66" d="M338.8,174.4c-2.1-2.2-4.3-4.3-4.9-7.5c-0.9-1.2-1.2-2.6-1.1-4.1c0-0.4,0-0.8,0-1.2c0.5-5.8,2.3-7.3,8-6.5
		c1.8,0.3,3.6,0.2,5.5-0.1c4.8-0.6,6.1,0.5,7.1,5.2c-0.2,2.2,1.1,4.5-0.6,6.5c-1,3.1-2.7,5.6-5.3,7.6c-0.1,0.1-0.1,0.2-0.2,0.3
		c-2.6,1.7-5.3,1.9-8,0.3C339.1,174.9,338.9,174.7,338.8,174.4z"/>
	<path fill="#FECB66" d="M328.8,191c0.1-0.2,0.3-0.4,0.4-0.7c0.7-0.2,0.8,0.6,1.5,0.9c-0.1-1.6-0.3-3.1-0.2-4.6
		c0-1.4,0.8-2.2,2.1-2.4c0.8-0.1,1.8-0.4,1.9,1c-0.1,0.6-0.4,1.1-1.1,1.3c0.5,0.2,1.3-0.1,1.6,0.7c0,0.2-0.1,0.4-0.2,0.6
		c-0.3,0.5-1.4,0.9-0.2,1.6c1.9,0.2,0.9-1.3,1.1-2.1c0.7-0.6-0.4-1.7,0.6-2.2c1.5-0.5,2.9-0.7,4.5-0.4c1,0.2,2,0,3-0.4
		c3.1-1,3.6-0.6,3.8,2.6c0,1.8,0.2,3.7-0.5,5.5c-0.7,2.3-2.1,4.1-4.2,5.3c-0.4,0.3-0.8,0.5-1.3,0.6c-1.8,0.4-3.5,0.4-5.2-0.1
		c-2.4-0.5-3.8,1-5.1,2.7c-0.5,0.6-0.5,1.5-1.3,1.9c-0.5-1.8-0.2-3.7-0.4-5.5c-0.1-0.9,0.1-1.9-0.7-2.7
		C328.1,193.4,328.6,192.2,328.8,191z"/>
	<path fill="#7AB41D" d="M342.6,197.6c1.5-1.4,3.3-2.7,3.9-4.9c2.1-1.7,1.9-3.7,0.9-5.8c0.3-3,0.2-5.9-2.6-7.9
		c-0.6-0.4-1.3-0.7-1.3-1.6c1.4-0.9,3-1.4,4-2.9v-0.1c8.1,2.7,9,4,9.7,13.2c0.1,2.9-0.4,3.3-4,2.7c-0.9-1.1-0.9-1.1-0.9-2.9
		c-0.2,2-0.9,3.7-0.7,5.5c-0.6,2.1-2,3.6-3.5,5.1C346.2,199.8,344.4,198.3,342.6,197.6z"/>
	<path fill="#8D3ED5" d="M304.9,176.5c0.7-0.4,1.4-0.7,2.1-1.1c0.9-1,2-1.4,3.3-1.2c0.9,2,3,2.4,4.5,3.5c0.1,0.5-0.2,0.8-0.5,1
		c-3.6,1.8-4.6,5-4.5,8.8c-0.2,1-0.2,2.1-0.4,3.2c-1.3,1.7,0.2,3.6-0.3,5.4c-2.3-0.3-2.6-2.3-3.3-3.9c0.2-2.1-0.4-4.1-0.4-6.1
		c0-0.4-0.4,0.1-0.2,0c0.1-0.1,0.2,0,0.1,0.2c-0.2,1.3,1,2.8-0.4,4c-1.5,0.5-3.1,0.7-4.5-0.3c-0.2-3.1,0.4-6.2,1-9.2
		C301.9,178.8,303.2,177.5,304.9,176.5z"/>
	<path fill="#59463F" d="M343.6,177.5c3.8,1.6,4.4,5,4.7,8.5c0.1,0.5-0.3,0.9-0.7,1.1c-0.3,0.1-0.5,0.1-0.6-0.2c0-3,0-3.1-2.7-2
		c-2.7,1.1-5.6-0.3-8.4,0.7c-0.7,0.5-1.3,0.4-1.9-0.2c-0.1-0.3,0.6-0.9-0.1-0.8c-1,0.2-2.3-0.1-2.9,1.1c-0.2,0.3-0.1,0.8-0.1,1.2
		c-0.2,0.5-0.5,0.9-1,0.7c-1-0.4-0.5-1.3-0.4-2.1c0.1-1.1,0-2.2,0.6-3.2c1.9-4.9,4-6.1,10.2-6C341.5,176.5,342.8,176.4,343.6,177.5z
		"/>
	<path fill="#E22B56" d="M326.4,198.6c1.8,1.8,1.2,4.2,1.7,6.3c0.3,1-0.7,0.8-1.3,0.8c-5.8,0-11.7,0-17.5-0.1
		c-0.8-1.3-0.4-2.5,0.2-3.7c0.7-1.1,1.9-1.4,3.1-1.7c1.4-0.3,2.6-0.7,3.3-2.1c0.1-0.2,0.3-0.3,0.5-0.4c2,0.3,3.9-0.3,5.7-1
		C323.6,197.2,325.2,197.4,326.4,198.6z"/>
	<path fill="#4ABCFE" d="M330,202.8c1-3.7,3.3-5.5,6.3-5.2c1.3,1.3,3,0.8,4.5,0.9c2.2,1.6,5.4,1.3,7.5,3.3c0.5,1.2,1.1,2.5,0.2,3.8
		c-5.4,0-10.8,0.1-16.3,0.1C329.4,205.8,329.4,205.8,330,202.8z"/>
	<path fill="#5A4641" d="M309.4,187.4c-0.7-4.3,0.8-7,5.4-9.6c0.5-0.7,1.2-0.9,2-1.1c1.7-0.1,3.3-0.2,5,0.2c2.8,0.8,5,2.3,5.9,5.3
		c0.6,1.7,0.7,3.4,0.5,5.2c-0.4,0.4-0.9,0.4-1.4,0.4c-3.5-1.6-6.8-3.7-10.8-4.4c-1.1-0.2-2.5,0.2-3.2-1.1c0.1-0.9,0.8-1.3,1.5-1.7
		c3.8-2.1,9-1.1,11.8,2.4c-4.1-5.1-10.7-5-14.5,0.3c-0.2,0.3-0.7,0.4-0.7,0.9c0.4-0.3,0.8-0.4,1.3-0.1c0.7,1.7-0.2,2.7-1.5,3.5
		C310.1,187.8,309.7,187.8,309.4,187.4z"/>
	<path fill="#FECB66" d="M347.9,201.9c-2.3-1.2-5.3-0.9-7.1-3.1c0-0.6,0.5-0.5,0.9-0.7c0.3-0.2,0.6-0.3,0.9-0.5c0.1,0,0.2,0,0.2,0
		c4.8,1.8,6.5-1.7,8.3-4.9c0.2-1.1,0.1-2.4,1.5-2.9c0.7,0,1.4,0,2.1,0.1c1.8,0.3,2.6-0.5,2.4-2.3c1,4.3-1.3,7.3-4.1,10
		C352,199.8,349.9,200.8,347.9,201.9z"/>
	<path fill="#FDCA66" d="M315.8,197.9c1.2,3-1.7,2.5-2.9,3c-1,0.4-2.1,0.5-3.1,1c-2.2-0.9-4.1-2.2-5.5-4.3c-1.9-2.3-4.2-4.4-4-7.7
		c1.5,0,3.1,0.1,4.6,0.1c1,0.4,1.1,1.3,1.2,2.2c0.7,1.4,1.5,2.8,2.7,3.8c1.5,0.9,2.9,1.9,4.8,1C314.4,196.8,315.3,197.1,315.8,197.9
		z"/>
	<path fill="#594640" d="M353.9,155.9c-0.2-0.9-0.3-1.9-1.1-2.7c-0.9-2.3-2.9-3.2-5.1-3.8c-4-1.1-8-0.2-12,0.4
		c-1.6,0.3-2.5,1.1-3.1,2.4c0.1-0.1,0.1-0.1,0.2-0.1c-0.1,0-0.1,0.1-0.2,0.1c-0.6,2.6-0.2,5.2-0.2,7.8c-0.3,1.1-0.5,2.2,0.9,2.7
		c-0.1-1.7,0.5-3.3,1-4.9c0.6-1.8,1.5-2.6,3.5-2.3c3.2,0.5,6.5,0.7,9.8,0.1c2.6-0.5,3.9,0.5,4.5,2.9c0.2,0.6,0.3,1.2,0.5,1.8
		c0.4,0.6-0.1,1.5,1,2.4C354.3,160.3,353.8,158.1,353.9,155.9z"/>
	<path fill="#9143D5" d="M304.3,197.7c1.8,1.4,3.7,2.8,5.5,4.3c-0.2,1.3-0.3,2.5-0.5,3.8c-5,0.2-5,0.2-5-4.7
		C304.3,199.9,304.3,198.8,304.3,197.7z"/>
	<path fill="#7AB41E" d="M347.9,201.9c1.5-1.8,3.7-2.7,5.3-4.3c0,1.2,0.1,2.4,0.1,3.6c0,4.7,0,4.7-4.7,4.5
		C348.3,204.4,348.1,203.2,347.9,201.9z"/>
	<path fill="#5A463F" d="M326.4,198.6c-1.5-0.4-3-0.6-4.3-1.6c0.7-1.8,2.7-2.7,3.5-4.4c1.1-0.5,1.7-1.8,3-1.9
		c0.1,0.1,0.1,0.2,0.2,0.3c0.5,1.2,0.5,2.4,0.1,3.6c-0.2,0.7-0.7,1.3-0.6,2C328.5,198.2,327.8,198.6,326.4,198.6z"/>
	<path fill="#8E40D3" d="M327.6,182.3c-2.5-4.1-6.4-5.3-10.9-5c0.2-1.3,1.1-2.2,2-3.1c1.7-0.2,3.1,0.4,4.2,1.7
		c0.3,0.1,0.5,0.3,0.8,0.4C326,177.7,327.4,179.6,327.6,182.3z"/>
	<path fill="#7DB424" d="M340.2,176.8c-4.5-0.3-8.1,1.1-10.1,5.5c0-3.2,1.9-4.9,4.5-6.1c1.4-0.6,2.8-1.1,4.2-1.7
		c0.1,0.1,0.2,0.1,0.4,0.1C339.7,175.3,340.5,175.8,340.2,176.8z"/>
	<path fill="#DCAB4B" d="M352.8,160.4c0.2,0.5,0.4,1,0.8,1.9c0.1-2.5,0.2-4.5,0.3-6.4c0.5,1.9,0.3,3.9,1.1,5.9c0.6,1.7,0,4-2.2,4.9
		C353.5,164.7,352.5,162.6,352.8,160.4z"/>
	<path fill="#E6B147" d="M329.6,185.5c0.4,0.5-0.5,2.5,1.5,1.4c0.1,1.3,0.1,2.5,0.3,3.8c0.1,0.7,0.7,1.5-0.2,1.8
		c-0.7,0.2-1.1-0.6-1.4-1.3c-0.1-0.3-0.3-0.5-0.5-0.8C329.2,188.7,328.9,187.1,329.6,185.5z"/>
	<path fill="#E3B049" d="M332.5,160.1c0.4,0.8,0.3,1.9,0.9,2.7c0.2,1.4,0.3,2.7,0.5,4.1C331.3,165.4,330.6,162.2,332.5,160.1z"/>
	<path fill="#DFAB4B" d="M328.7,190.7c-0.9,0.7-1.5,2-2.8,2c-0.4-1.9,0.1-3.7,1-5.3c0.5,0,0.9,0,1.4,0.1
		C328.9,188.5,328.6,189.6,328.7,190.7z"/>
	<path fill="#FECB65" d="M304.5,163.9c0-0.7,0-1.3,0-2c0.8-1.8,2.6-1.9,4.1-2.4c3.5-1.3,6.9-2.8,10-4.9c0.4-0.3,0.8-0.6,1.3-0.2
		c0.7,2.1,2.3,3.6,3.3,5.5c0.5,0.8,1,1.6,1.1,2.6c0.6,5-1.5,8.7-5.5,11.5c-3.7,2.6-5.6,2.6-8.5,0.3
		C306.4,171.9,304.1,168.6,304.5,163.9z"/>
	<path fill="#463732" d="M317.1,148.2c-7.7-1.4-15.3,2.9-16.6,9.6c-1.4,6.8,0.1,13.2,4.5,18.7c1,0.3,1.8,0.1,2.2-0.9l-0.1-0.1
		c1.1-0.3,2.1-0.6,3.2-1c0.3-0.1,0.3-0.2,0.2-0.5c-3-2.3-5.1-5.2-5.7-8.8c0.1-0.4,0.2-0.9,0.3-1.3c0.1-0.6,0.1-1.2-0.2-1.8
		c-0.1-0.1-0.1-0.1-0.2-0.2c1.3-1,2.9-1.5,4.4-2c3.8-1.2,7.4-2.8,10.6-5.3c0.1,1,0.7,1.9,1.3,2.7c1.1,1.7,2.4,3.4,3.1,5.4
		c0.1,0.2,0.2,0.5,0.3,0.7c-0.6,4-1.8,7.7-5.7,10c-0.3,0.3-0.3,0.6,0,1c1.4,0.5,2.7,0.9,4.1,1.4c0.1,0.5,0.4,0.9,1,0.5
		c3.2-2.9,4.2-6.8,4.8-10.7C329.9,155.9,326.5,149.9,317.1,148.2z M316.6,155L316.6,155C316.6,155,316.6,154.9,316.6,155
		c0-0.1,0.1-0.1,0.1-0.1C316.7,155,316.6,155,316.6,155z"/>
	<path fill="#E2AF45" d="M340.2,176.8c-0.5-0.7-1.1-1.4-1-2.3c2.7,1.6,5.5,0.8,8.2,0c-0.4,2.1-1.9,2.9-3.8,3
		C342.5,177.3,341.3,177.1,340.2,176.8z"/>
	<path fill="#775545" d="M337.1,161.5c0.8-0.9,1.7-0.8,2.5-0.3c0.5,0.3,0.9,1,0.7,1.6c-0.3,1.2-1.4,1-2.3,1.1
		C337,163.4,335.9,162.8,337.1,161.5z"/>
	<path fill="#755241" d="M348.8,163.6c-0.9,0.4-1.8,0.4-2.6-0.4c-0.4-0.4-0.2-1,0.1-1.5c0.8-1.3,1.9-0.8,2.9-0.7
		C349.9,162,350.3,163,348.8,163.6z"/>
	<path fill="#D09946" d="M335.4,159.6c1.9-1,3.8-1.6,5.6-0.2C339.1,159.7,337.2,159.3,335.4,159.6z"/>
	<path fill="#EAAA11" d="M346.4,170.1c-1.6,2.2-4.4,2.2-6.1,0.1c0.1-0.1,0.2-0.1,0.3-0.2c1.9,0,3.7,0.1,5.6,0
		C346.2,170,346.3,170,346.4,170.1z"/>
	<path fill="#D09946" d="M351.3,159.6c-2.1,0-4,0-6,0C347.1,158.2,348.5,158.2,351.3,159.6z"/>
	<path fill="#EAB44A" d="M343.2,166.2c0.7,0.2,1.7-0.3,1.6,0.6c0,0.9-1,0.8-1.7,0.8c-0.7,0-1.7,0.1-1.6-0.9
		C341.6,165.8,342.7,166.6,343.2,166.2z"/>
	<path fill="#EAAA11" d="M340.3,170.1c-0.2-0.2-0.6-0.6-0.6-0.6c0.7-0.7,6.5-0.4,7,0.3c0,0-0.1,0.1-0.1,0.2c-0.1,0-0.1,0.1-0.2,0.1
		l0,0C344.3,170.2,342.3,170,340.3,170.1L340.3,170.1z"/>
	<path fill="#F9F5EF" d="M348.8,163.6c0.8-0.7,0.6-1.6,0.5-2.5c0.7,0.4,1.7,0.7,1.3,1.7C350.4,163.3,349.9,164.2,348.8,163.6z"/>
	<path fill="#F8F3E9" d="M337.1,161.5c-0.4,1.1,0.3,1.7,0.9,2.4c-1.1,0.1-1.9-0.2-2.1-1.4C335.8,161.7,336.4,161.4,337.1,161.5z"/>
	<path fill="#E3B045" d="M347,187c0.2,0.1,0.4,0.1,0.6,0.2c2.1,1.8,1.6,4.4-1.1,5.6C347.2,190.9,346.9,188.9,347,187z"/>
	<path fill="#EDB123" d="M338.8,196.2c-0.4-0.1-1-0.3-1.6-0.6c-0.5-0.2-1.1-0.6-1-1.2c0.1-0.7,0.8-0.6,1.4-0.7c0.6,0,1.1-0.1,1.7,0
		c0.9,0.2,2.5-0.7,2.4,0.9C341.7,195.7,340.2,196,338.8,196.2z"/>
	<path fill="#7B5A47" d="M343.2,187.4c0.4,0.6,1.8,1,0.9,2c-0.6,0.7-1.7,0.7-2.4,0.1c-1.1-0.9-0.1-1.5,0.5-2
		C342.5,187.2,342.8,187.2,343.2,187.4z"/>
	<path fill="#D9A550" d="M335.9,187.5c-0.3,0-0.6,0-1-0.1c-0.5-0.7-1.3-0.2-2-0.6c0.4-0.5,0.8-0.9,1.1-1.4c0.6,0.1,1.3,0.1,1.9,0.2
		C337.7,186.3,336.9,186.9,335.9,187.5z"/>
	<path fill="#E3B04B" d="M341.7,198.1c-0.3,0.2-0.6,0.5-0.9,0.7c-1.7,0.4-3.5,1-4.5-1.2C338.1,198.2,339.9,198,341.7,198.1z"/>
	<path fill="#D9A34D" d="M343.2,187.4c-0.3,0-0.7,0-1,0.1c-0.4-0.3-0.9-0.6-1.3-0.9c1.9-0.8,2.3-0.8,4.3,0.1
		C344.7,187.4,343.6,186.6,343.2,187.4z"/>
	<path fill="#E9B349" d="M337.4,192.6c1.2-0.4,2.1-0.5,3.2,0C339.5,193.5,338.7,193.4,337.4,192.6z"/>
	<path fill="#7B5A47" d="M335.9,187.5c-0.3-0.3-0.6-0.3-1-0.1c-0.1,0.1-0.3,0.1-0.4,0.1c-1.5,0.8-2.2,1.6,0,2.4l0,0
		c1,0.7,1.7-0.1,2.2-0.7C337.2,188.5,336.2,188.1,335.9,187.5z"/>
	<path fill="#5F9D20" d="M352.7,189.8c-0.5,1-1,1.9-1.5,2.9c-0.7-2.6,1-4.8,0.7-7.3c0.3,0,0.6,0,0.9,0.1
		C352.7,186.9,352.7,188.4,352.7,189.8z"/>
	<path fill="#594640" d="M315.8,197.9c-0.9-0.2-1.9-0.6-2.8-0.1c-2.1,1.1-3.2-0.1-4.1-1.7c-0.2-1.8-1.7-3.6,0.1-5.4
		c1.2,0.1,1.6,1.4,2.7,1.7c1.2,1.5,2.3,3,3.9,4.1c0.4,0.3,0.9,0.8,0.5,1.4l-0.1-0.1L315.8,197.9z"/>
	<path fill="#E3AD49" d="M310.3,174.5c0.1-0.2,0.1-0.3,0.2-0.5c2.8,1.9,5.5,1.6,8.1-0.5c0,0.3,0,0.6,0,1c-0.2,1.3-0.9,2.1-1.9,2.9
		c-0.7,0.2-1.3,0.3-2,0.5C312.7,177.5,310.6,177.2,310.3,174.5z"/>
	<path fill="#DDAA46" d="M311.4,192.7c-1.3,0-1.8-1.1-2.4-1.9c0.1-1.1-0.4-2.3,0.4-3.3c0.3,0,0.6,0,0.9,0
		C312.2,188.8,311.7,190.8,311.4,192.7z"/>
	<path fill="#7934B2" d="M306.2,192.3c-0.4-0.7-0.8-1.5-1.2-2.2c0-1.6,0-3.3,0-4.9C305.3,187.5,307.1,189.7,306.2,192.3z"/>
	<path fill="#FDCB65" d="M311.4,192.7c-0.9-1.7,0-3.7-1.1-5.3c0.9-0.9,2.1-1.7,1.5-3.3c-0.2-0.8-0.6-1.6,0.8-1.7
		c5.2,0.3,9.8,2.5,14.2,5.1c0.1,1.9-0.3,3.6-1,5.3c-0.5,2-2.2,3.1-3.7,4.3c-1.8,1.5-3.9,1.9-6.1,0.9
		C314.6,196.1,312.2,195.1,311.4,192.7z"/>
	<path fill="#F7F7F7" d="M312.5,182.4c-0.8,0.3-0.3,1.2-0.8,1.7c-0.7-0.2-0.9,0.4-1.2,0.8c0.5-4.2,4.3-6.6,9.5-6.1
		c3.9,0.4,6.8,3,6.6,6C323.8,179.8,317.9,178.8,312.5,182.4z"/>
	<path fill="#DB8A24" d="M311.4,170.6c-0.7-0.5-1.6-1.1,0-1.3c2-0.2,4-0.1,6-0.1c1.1,0,1.2,0.5,0.5,1.3
		C316.4,172.6,313.2,172.6,311.4,170.6c1.5-0.4,3.2,0.4,4.1,0.1C314.6,171.1,313,170,311.4,170.6z"/>
	<path fill="#775843" d="M316.9,162.3c0.3-0.8,0.8-1.3,1.6-1.6c0.9-0.3,1.8-0.1,2.5,0.4c1,0.6-0.2,1.4,0,2.1
		C318.8,164.7,318.2,164.5,316.9,162.3z"/>
	<path fill="#7F5B48" d="M310.9,161.1c0.5,0.1,0.8,0.4,0.9,0.9c-0.1,1.6-0.9,2.5-2.6,2.2c-1.3-0.2-1.8-0.9-1.3-2.2
		C308.7,161.1,310.1,162.2,310.9,161.1z"/>
	<path fill="#E9E0D5" d="M308.5,162c-0.5,1-0.1,1.6,0.9,1.9c0.9,0.2,1.6-0.1,1.9-1c0.1-0.4,0.1-0.8,0.6-0.9c0.2,0.9,0.5,1.8-0.6,2.2
		c-1.2,0.4-2.5,0.6-3.6-0.4c-0.9-0.8-0.5-1.5,0-2.3C308.1,161.2,308.6,161.1,308.5,162z"/>
	<path fill="#5B3E34" d="M308.5,162c-0.1-0.6-0.5-0.6-1-0.5c1-0.8,2.1-1,3.3-0.4C310.9,163.5,309.4,161.8,308.5,162z"/>
	<path fill="#E9E2D8" d="M316.9,162.3c1.1,1.4,2.3,2.3,4.1,0.9c-0.6,1.7-2,1.2-3.1,0.9C317,164,316.3,163.4,316.9,162.3z"/>
	<path fill="#E6B146" d="M312.8,167.1c1.2-0.4,2.3-0.5,3.9-0.1C315.1,168,313.9,167.9,312.8,167.1z"/>
	<path fill="#5E4A40" d="M320.2,159.5c-1.1,0.1-2.2,0.2-4,0.4C317.8,158.7,318.9,159.1,320.2,159.5z"/>
	<path fill="#FCF2DB" d="M340.3,170.1c2-0.8,4.1-0.7,6.1-0.1C344.3,170.9,342.3,170.9,340.3,170.1z"/>
	<path fill="#FBE7BD" d="M337.2,194.3c1.2,0,2.4,0,3.7,0C339.7,195.4,338.4,195.3,337.2,194.3z"/>
	<path fill="#ECB01F" d="M316.2,194.7c-0.6-0.5-0.4-0.9,0.3-0.9c1.2-0.1,2.4-0.1,3.6-0.1c0.6,0,1.4-0.1,1.5,0.7
		c0.1,0.6-0.6,0.9-1,1.2C318.9,196.4,317.3,196.4,316.2,194.7c1.2-0.4,2.5,0.3,3.8-0.2C318.8,195.1,317.5,194.3,316.2,194.7z"/>
	<path fill="#795746" d="M315.7,187.5c0.3,0.7,1.7,1.2,0.4,2.1c-0.6,0.4-1.5,0.9-2.3,0c-1-1.2,0.4-1.5,0.8-2.2
		C315,187.1,315.4,187.2,315.7,187.5z"/>
	<path fill="#8C6D5A" d="M322.4,187.4c0.9,0,1.3,0.7,1.3,1.4c0.1,0.8-0.8,0.9-1.4,1c-0.8,0.1-1.4-0.4-1.3-1.3
		C321.2,187.8,321.7,187.4,322.4,187.4z"/>
	<path fill="#D9A34E" d="M315.7,187.5c-0.3,0-0.7-0.1-1-0.1c-0.5-0.7-1.4-0.1-2.3-0.9c1.6-0.7,3-0.5,4.5-0.3
		C317,187.2,315.8,186.9,315.7,187.5z"/>
	<path fill="#EAB44A" d="M317.3,192.6c1-0.5,1.8-0.3,3.3-0.2C319.2,193.2,318.4,193.6,317.3,192.6z"/>
	<path fill="#FCF7EF" d="M311.4,170.6c1.8-1.4,3.9,0.1,5.8-0.6C315.4,171.7,313.4,171,311.4,170.6L311.4,170.6z"/>
	<path fill="#FAE9C3" d="M316.2,194.7c1.4-1,2.9-0.2,5-0.7C319.2,195.7,317.7,195,316.2,194.7L316.2,194.7z"/>
</g>
<path fill="#FDFDFD" d="M318.7,141.8c-4.8-0.7-5.9,0.2-6.5,5c0,0.4,0,0.7,0,1.1c0.2,1.5-0.7,3.3,1.5,4.5c2.6,1.3,5.3,2.2,8.3,1.1
	c0.5-0.2,0.7-0.5,0.9-1.1c0.4-1.1,0.9-2.4,1.3-3.5c1.1-3.8-0.2-5.8-4-6.6C319.9,141.8,319.3,141.8,318.7,141.8z"/>
<path fill="#CCCECE" d="M201.2,161.2c1.1-3.8,4-14,4.8-16.5c-5.5-1.3-14.3-3.8-16.5-3.8c-3.7,22.3-2.7,17.5-2.9,18.1
	C191.5,159.6,196.2,160.4,201.2,161.2z"/>
<path fill="#2D2D2D" d="M194.1,85.4c-11.8-3.8-23.4-7.3-35.2-11.1c-12.3-3.8-24.7-7.8-37-11.6C119.4,61.8,2.7,24,0.4,23.1
	c0,0.5-0.2,1.1-0.2,1.7v104.5c36.1,8,118,25.6,124.7,27.3c2.7,0.7,5.5,1.1,8.3,1.8c10.5,2.4,21.1,4.6,31.9,6.8
	c5.9,1.3,11.8,2.6,17.5,4c1.8,0.4,2.4-0.2,2.7-2c0.4-2.7,0.7-5.8,1.5-8.5c0-0.5,0.2-1.1,0.2-1.5c3.8-22.3,7.2-44.6,10.9-66.7
	C198.1,86.5,197.9,86.6,194.1,85.4z"/>
<path fill="#111111" d="M0,104.6v24.9c36.5,8,118.2,25.6,124.8,27.3c2.7,0.7,5.5,1.1,8.3,1.8c10.5,2.4,21.1,4.6,31.9,6.8
	c5.9,1.3,11.8,2.6,17.5,4c1.8,0.4,3.7-10.3,5.8-20.6C188.6,145.2,47,115.5,0,104.6z"/>
<path fill="#F1C9AF" d="M240.6,174.8c-13.3-4.2-26.3-9-39.4-13.6c1.1-3.8,2.4-7.8,3.5-11.6c2.2-7.8,4.5-15.5,6.6-23.4
	c2.1-7.9,4.6-15.8,6.8-23.6c0.7-2.6,1.5-5.2,2.4-7.8c5.5,0.7,10.9,1.7,16.4,2.2c3.3,0.4,6.6,1.1,10,0.4c8.5-1.5,17-2.7,25.4-3.3
	c14.7-1.1,29.4-1.3,44,2.4c8,1.8,15.5,4.8,21.4,10.7c3.3,3.1,6.6,6,10,9.2c2.6,2.4,5.2,4.8,7.3,7.3c-24.7,0.2-49.4,0.4-74.4,0.5
	c0.5,0.4,0.5,0.5,0.7,0.7c11.1,5.9,22.3,11.4,34.9,13.1c2.4,0.4,4.6,1.1,6.6,2.4c3.7,2.4,5.2,5.9,4,9.8c-0.9,3.5-4,5.3-8.3,5.5
	c-6.6,0.2-13.3-1.1-19.8-1.8c-5.2-0.5-10.3-1.5-15.6-2c-2.4-0.4-4.8-0.2-7-0.5c-1.5-0.2-1.7,0.4-1.5,1.7c0.2,2.7,0,5.5,0,8.5
	c0,7.6,0,15.1,0,22.8C263.3,181.8,251.9,178.5,240.6,174.8z M312.4,146.9c0,0.4,0,0.7,0,1.1c0.2,1.5-0.7,3.3,1.5,4.5
	c2.6,1.3,5.3,2.2,8.3,1.1c0.5-0.2,0.7-0.5,0.9-1.1c0.4-1.1,0.9-2.4,1.3-3.5c1.1-3.8-0.2-5.8-4-6.6c-0.5-0.2-0.9-0.2-1.5-0.2
	C313.9,141,312.8,141.8,312.4,146.9z"/>
<g>
	<path fill="#4F4F4F" d="M323,251c7.3,0,14.3,0,21.6,0c0.3,0,0.5,0.2,0.7,0c0.3-0.2,0.5-0.7,0.7-1.2c-0.3-0.3-0.3-0.7-0.7-1.2
		c-0.2-0.2-0.3,0-0.7,0c-14.6,0-29,0-43.4,0c-0.5,0-1.3-0.5-1.3,1.2c0,1.7,1,1.2,1.3,1.2c6.6,0,13.3,0,20.1,0
		C321.8,251,322.7,251,323,251z"/>
	<path fill="#4F4F4F" d="M322.8,257c7.3,0,14.6,0,21.7,0c0.3,0,0.7,0,1,0c0.3-0.2,0.3-0.5,0.3-1c0-0.3-0.3-1-0.3-1.2
		c-0.3-0.2-0.5,0-0.7,0c-14.6,0-29.2,0-43.8,0c-0.3,0-0.5-0.2-0.7,0c-0.3,0.2-0.3,0.7-0.3,1.2c0,0.5,0.3,0.7,0.3,1
		c0.3,0.2,0.5,0,1,0C308.6,257,315.7,257,322.8,257z"/>
	<path fill="#4F4F4F" d="M323,230.3c7.3,0,14.6,0,21.7,0c0.3,0,0.5,0.2,0.7,0c0.3-0.2,0.3-0.7,0.3-1.2c0-0.3-0.3-0.7-0.3-1
		c-0.3-0.2-0.3,0-0.7,0c-14.6,0-29.2,0-43.8,0c-0.3,0-0.5-0.2-0.7,0c-0.3,0.2-0.3,0.5-0.3,1c0,0.3,0.3,1,0.3,1.2
		c0.3,0.2,0.5,0,0.7,0C308.6,230.3,315.9,230.3,323,230.3z"/>
	<path fill="#4F4F4F" d="M322.8,224.3c7.3,0,14.3,0,21.6,0c0.3,0,0.7,0.2,1,0c0.3-0.2,0.3-0.7,0.7-1.2c-0.3-0.3-0.3-0.7-0.7-1
		c-0.2-0.2-0.3,0-0.7,0c-14.6,0-29.2,0-43.4,0c-0.2,0-0.2,0-0.3,0c-0.3,0-1.2-0.2-1.2,1.2c0,1.3,0.7,1.2,1.2,1.2
		C308.4,224.3,315.7,224.3,322.8,224.3z"/>
	<path fill="#4F4F4F" d="M334.3,236.4c3.5,0,7,0,10.4,0c0.3,0,0.3,0.2,0.7,0c0.3-0.2,0.5-0.7,0.7-1.2c-0.3-0.3-0.3-0.7-0.7-1.2
		c-0.2-0.2-0.3,0-0.5,0c-7.1,0-14.1,0-21.2,0c-0.2,0-0.3,0-0.3,0c-0.3,0-1,0.2-0.7,1.2c0.2,0.3,0.3,0.7,0.7,1.2c0.2,0.2,0.3,0,0.7,0
		C327.3,236.4,330.8,236.4,334.3,236.4z"/>
	<path fill="#4F4F4F" d="M334.3,262.3c3.5,0,7.1,0,10.6,0c0.3,0,0.5,0.2,0.7,0c0.3-0.2,0.3-0.7,0.3-1.2c0-0.5-0.3-0.7-0.3-1
		c-0.3-0.2-0.3,0-0.7,0c-7.1,0-14.1,0-21.2,0c-0.3,0-0.3-0.2-0.7,0c-0.3,0.2-0.3,0.5-0.7,1c0.3,0.3,0.3,0.7,0.7,1.2
		c0.2,0.2,0.3,0,0.7,0C327.3,262.3,330.8,262.3,334.3,262.3z"/>
	<path fill="#4F4F4F" d="M357.5,222.2h-5.1c-1.6,0-2.8,1.3-2.8,2.8v5.1c0,1.6,1.3,2.8,2.8,2.8h5.1c1.6,0,2.8-1.3,2.8-2.8V225
		C360.3,223.5,359,222.2,357.5,222.2z M351,230.1v-4.9c0-0.8,0.7-1.5,1.5-1.5h4.9c0.8,0,1.5,0.7,1.5,1.5v4.9c0,0.8-0.7,1.5-1.5,1.5
		h-4.9C351.6,231.5,351,230.9,351,230.1z"/>
	<path fill="#4F4F4F" d="M357.5,248.6h-5.1c-1.6,0-2.8,1.3-2.8,2.8v5.1c0,1.6,1.3,2.8,2.8,2.8h5.1c1.6,0,2.8-1.3,2.8-2.8v-5.1
		C360.3,249.9,359,248.6,357.5,248.6z M351,256.5v-4.9c0-0.8,0.7-1.5,1.5-1.5h4.9c0.8,0,1.5,0.7,1.5,1.5v4.9c0,0.8-0.7,1.5-1.5,1.5
		h-4.9C351.6,258,351,257.3,351,256.5z"/>
</g>
</svg>
