<?xml version="1.0" encoding="utf-8"?>
<!-- Generator: Adobe Illustrator 18.0.0, SVG Export Plug-In . SVG Version: 6.00 Build 0)  -->
<!DOCTYPE svg PUBLIC "-//W3C//DTD SVG 1.1//EN" "http://www.w3.org/Graphics/SVG/1.1/DTD/svg11.dtd">
<svg version="1.1" id="Layer_1" xmlns="http://www.w3.org/2000/svg" xmlns:xlink="http://www.w3.org/1999/xlink" x="0px" y="0px"
	 viewBox="0 0 1190.6 841.9" enable-background="new 0 0 1190.6 841.9" xml:space="preserve">
<path d="M1134.1,244.6c1.8-31.2-16.4-49.4-48.5-48.5H853V14.3H324.6v181.8H157.5c-18.9,0-34.5,15.6-34.5,34.5L53.1,577.1v209.1h45.5
	V624.5c0-1.6,1.6-3,3-3h1010v165h45.5V591.2L1134.1,244.6z M356.1,45.8h465.4v355.9H356.1V45.8z M1108.9,577.6c0,0-874.5,0-1007.4,0
	l67.1-332.8c0-1.6,1.6-3,3-3h153.1v160.3H254c-9.3,0-18.9,7.9-18.9,18.9c0,9.3,7.9,18.9,18.9,18.9h689.8c9.3,0,18.9-7.9,18.9-18.9
	c0-9.3-7.9-18.9-18.9-18.9h-91.1V241.8h236.4l22.6,335.8C1110.3,577.6,1110.3,577.6,1108.9,577.6z M560.5,223.6
	c-18.2-17.7-36.6-35.7-54.5-53.1c-17,17-34.3,34.3-51,51c35.2,35.2,70.8,70.8,106,106.3c59.9-59.9,120-120,179.9-179.9l-51.7-51.7
	C646.5,138.5,603.4,181.2,560.5,223.6z"/>
</svg>
